# xmcd CD database file
#
# Track frame offsets:
#	150
#	13192
#	57452
#	75095
#	97962
#	118270
#	136637
#	170302
#	196000
#
# Disc length: 2799 seconds
#
# Revision: 1
# Processed by: cddbd v1.5.2PL0 Copyright (c) Steve Scherf et al.
# Submitted via: CDex 1.51
#
DISCID=640aed09
DTITLE=Chris Barber - Chris Barber's Jazzband and All America Ramblers
DYEAR=1900
DGENRE=Blues
TTITLE0=The Martinique
TTITLE1=Saratoge Swing
TTITLE2=Majorca
TTITLE3=Just A Closer Walk With THee
TTITLE4=Pontiac Blues
TTITLE5=Jazz Me Blues
TTITLE6=Please Don't Talk About Me When I'm Gone
TTITLE7=Savoy Blues 
TTITLE8=Ice Cream
EXTD=
EXTT0=
EXTT1=
EXTT2=
EXTT3=
EXTT4=
EXTT5=
EXTT6=
EXTT7=
EXTT8=
PLAYORDER=
